<?xml version="1.0" standalone="no"?>
<!DOCTYPE svg PUBLIC "-//W3C//DTD SVG 20010904//EN"
 "http://www.w3.org/TR/2001/REC-SVG-20010904/DTD/svg10.dtd">
<svg version="1.0" xmlns="http://www.w3.org/2000/svg"
 width="300.000000pt" height="255.000000pt" viewBox="0 0 300.000000 255.000000"
 preserveAspectRatio="xMidYMid meet">
<metadata>
Created by potrace 1.10, written by Peter Selinger 2001-2011
</metadata>
<g transform="translate(0.000000,255.000000) scale(0.100000,-0.100000)"
fill="#000000" stroke="none">
<path d="M1435 2208 c-96 -53 -155 -183 -155 -341 0 -90 53 -1095 65 -1224 l5
-62 -180 -102 -180 -102 0 -54 c0 -34 4 -53 12 -53 6 0 121 29 256 65 l244 66
245 -66 c135 -36 249 -65 254 -65 5 0 9 25 9 54 l0 55 -177 99 c-98 55 -188
108 -200 118 l-21 19 34 570 c40 687 41 754 14 836 -50 149 -148 230 -225 187z"/>
<path d="M1716 1527 c-5 -25 -27 -420 -23 -422 6 -3 733 -195 740 -195 4 0 7
52 7 115 0 108 -1 115 -22 129 -13 8 -175 100 -360 204 -310 175 -338 189
-342 169z"/>
<path d="M898 1332 l-328 -186 0 -119 c0 -109 2 -119 18 -115 9 3 167 45 351
94 l333 88 -6 66 c-3 36 -9 131 -12 213 -5 98 -11 147 -18 146 -6 -1 -158 -85
-338 -187z"/>
</g>
</svg>
